<svg width="64" height="66" viewBox="0 0 64 66" fill="none" xmlns="http://www.w3.org/2000/svg">
<path d="M11.804 55.6046L7.312 4.86658H56.688L52.19 55.5965L31.97 61.2399L11.804 55.6046Z" fill="#1572B6"/>
<path d="M32 56.9274L48.34 52.3672L52.184 9.01611H32V56.9274Z" fill="#33A9DC"/>
<path d="M32 27.3979H40.18L40.744 21.0257H32V14.8025H47.5L47.352 16.4715L45.834 33.6211H32V27.3979Z" fill="white"/>
<path d="M32.038 43.5589L32.01 43.567L25.126 41.6946L24.686 36.7317H18.48L19.346 46.5024L32.008 50.0418L32.038 50.0338V43.5589Z" fill="#EBEBEB"/>
<path d="M39.654 33.3573L38.91 41.6905L32.016 43.5629V50.0378L44.688 46.5024L44.782 45.4514L45.856 33.3573H39.654Z" fill="white"/>
<path d="M32.022 14.8025V21.0257H17.09L16.966 19.6264L16.684 16.4715L16.536 14.8025H32.022ZM32 27.3979V33.6211H25.202L25.078 32.2219L24.798 29.067L24.65 27.3979H32Z" fill="#EBEBEB"/>
</svg>
