<svg width="64" height="66" viewBox="0 0 64 66" fill="none" xmlns="http://www.w3.org/2000/svg">
<g clip-path="url(#clip0_80_318)">
<path d="M22.75 65.7699C28.7 65.7699 33.5 60.9379 33.5 54.9483V44.1266H22.75C16.8 44.1266 12 48.9586 12 54.9483C12 60.9379 16.8 65.7699 22.75 65.7699Z" fill="#0ACF83"/>
<path d="M12 33.3049C12 27.3153 16.8 22.4833 22.75 22.4833H33.5V44.1266H22.75C16.8 44.1266 12 39.2946 12 33.3049Z" fill="#A259FF"/>
<path d="M12 11.6616C12 5.67197 16.8 0.839966 22.75 0.839966H33.5V22.4833H22.75C16.8 22.4833 12 17.6513 12 11.6616Z" fill="#F24E1E"/>
<path d="M33.5 0.839966H44.25C50.2 0.839966 55 5.67197 55 11.6616C55 17.6513 50.2 22.4833 44.25 22.4833H33.5V0.839966Z" fill="#FF7262"/>
<path d="M55 33.3049C55 39.2946 50.2 44.1266 44.25 44.1266C38.3 44.1266 33.5 39.2946 33.5 33.3049C33.5 27.3153 38.3 22.4833 44.25 22.4833C50.2 22.4833 55 27.3153 55 33.3049Z" fill="#1ABCFE"/>
</g>
<defs>
<clipPath id="clip0_80_318">
<rect width="64" height="64.4267" fill="white" transform="translate(0 0.839966)"/>
</clipPath>
</defs>
</svg>
