<svg width="32" height="32" viewBox="0 0 32 32" fill="none" xmlns="http://www.w3.org/2000/svg">
<g clip-path="url(#clip0_80_527)">
<path d="M16 0.396094C12.1993 0.394295 8.52207 1.74552 5.62682 4.20779C2.73157 6.67007 0.807387 10.0826 0.198835 13.8342C-0.409717 17.5859 0.33711 21.4317 2.30558 24.6829C4.27405 27.9341 7.3356 30.3784 10.942 31.5781C11.742 31.7261 12.036 31.2301 12.036 30.8081C12.036 30.4261 12.02 29.1661 12.014 27.8301C7.56198 28.7981 6.62398 25.9421 6.62398 25.9421C5.89598 24.0921 4.84798 23.6001 4.84798 23.6001C3.39598 22.6061 4.95798 22.6281 4.95798 22.6281C6.56398 22.7401 7.40998 24.2761 7.40998 24.2761C8.83798 26.7221 11.154 26.0141 12.066 25.6061C12.21 24.5721 12.624 23.8661 13.082 23.4661C9.52798 23.0621 5.79198 21.6901 5.79198 15.5581C5.79198 13.8121 6.41798 12.3841 7.43998 11.2641C7.27398 10.8601 6.72598 9.23409 7.59398 7.03009C7.59398 7.03009 8.93798 6.60009 11.996 8.67009C13.3011 8.31507 14.6474 8.13417 16 8.13209C17.36 8.13809 18.73 8.31609 20.008 8.67009C23.062 6.60009 24.404 7.03009 24.404 7.03009C25.274 9.23409 24.728 10.8621 24.562 11.2641C25.588 12.3841 26.208 13.8121 26.208 15.5581C26.208 21.7041 22.464 23.0561 18.902 23.4521C19.476 23.9481 19.988 24.9221 19.988 26.4141C19.988 28.5541 19.97 30.2781 19.97 30.8041C19.97 31.2301 20.258 31.7281 21.07 31.5721C24.6757 30.371 27.7361 27.9257 29.7033 24.674C31.6705 21.4222 32.416 17.5764 31.8063 13.8251C31.1966 10.0739 29.2714 6.66214 26.3756 4.20082C23.4798 1.73951 19.8025 0.389346 16.002 0.392094L16 0.396094Z" fill="#898989"/>
</g>
<defs>
<clipPath id="clip0_80_527">
<rect width="32" height="32" fill="white"/>
</clipPath>
</defs>
</svg>
