<svg width="72" height="72" viewBox="0 0 72 72" fill="none" xmlns="http://www.w3.org/2000/svg">
<g filter="url(#filter0_d_80_288)">
<path d="M15.804 54.402L11.31 4H60.69L56.19 54.394L35.97 60L15.804 54.402Z" fill="#E44F26"/>
<path d="M36 55.7159L52.34 51.1859L56.184 8.12195H36V55.7159Z" fill="#F1662A"/>
<path d="M36 26.814H27.82L27.256 20.484H36V14.302H20.5L20.648 15.962L22.166 32.996H36V26.814ZM36 42.868L35.972 42.876L29.088 41.018L28.648 36.088H22.442L23.308 45.792L35.972 49.308L36 49.3V42.868Z" fill="#EBEBEB"/>
<path d="M35.978 26.814V32.996H43.59L42.874 41.014L35.978 42.874V49.306L48.652 45.792L48.744 44.748L50.196 28.474L50.348 26.814H35.978ZM35.978 14.302V20.484H50.91L51.034 19.096L51.316 15.962L51.464 14.302H35.978Z" fill="white"/>
</g>
<defs>
<filter id="filter0_d_80_288" x="0" y="0" width="72" height="72" filterUnits="userSpaceOnUse" color-interpolation-filters="sRGB">
<feFlood flood-opacity="0" result="BackgroundImageFix"/>
<feColorMatrix in="SourceAlpha" type="matrix" values="0 0 0 0 0 0 0 0 0 0 0 0 0 0 0 0 0 0 127 0" result="hardAlpha"/>
<feOffset dy="4"/>
<feGaussianBlur stdDeviation="2"/>
<feComposite in2="hardAlpha" operator="out"/>
<feColorMatrix type="matrix" values="0 0 0 0 0 0 0 0 0 0 0 0 0 0 0 0 0 0 0.25 0"/>
<feBlend mode="normal" in2="BackgroundImageFix" result="effect1_dropShadow_80_288"/>
<feBlend mode="normal" in="SourceGraphic" in2="effect1_dropShadow_80_288" result="shape"/>
</filter>
</defs>
</svg>
