<svg width="64" height="66" viewBox="0 0 64 66" fill="none" xmlns="http://www.w3.org/2000/svg">
<g clip-path="url(#clip0_80_306)">
<path d="M0 0.839966H64V65.2666H0V0.839966Z" fill="#F7DF1E"/>
<path d="M16.828 54.6795L21.7255 51.6957C22.6705 53.3822 23.53 54.8091 25.5917 54.8091C27.568 54.8091 28.8142 54.0309 28.8142 51.0039V30.4181H34.8285V51.0895C34.8285 57.3602 31.177 60.2146 25.8495 60.2146C21.0382 60.2146 18.2455 57.7063 16.8277 54.679M38.0952 54.0307L42.9922 51.1765C44.2815 53.2958 45.957 54.8526 48.921 54.8526C51.4132 54.8526 53.0022 53.5983 53.0022 51.8684C53.0022 49.7926 51.3697 49.0573 48.6202 47.8467L47.117 47.1974C42.7777 45.3384 39.8995 43.0029 39.8995 38.0728C39.8995 33.5317 43.3362 30.0718 48.7065 30.0718C52.53 30.0718 55.2795 31.4127 57.2555 34.9156L52.5725 37.9432C51.5412 36.0836 50.4247 35.3485 48.7062 35.3485C46.9447 35.3485 45.8277 36.4729 45.8277 37.9432C45.8277 39.7594 46.9447 40.4951 49.5222 41.6195L51.0257 42.268C56.1382 44.4739 59.0165 46.7225 59.0165 51.7821C59.0165 57.2316 54.7635 60.2154 49.0497 60.2154C43.465 60.2154 39.8562 57.5341 38.095 54.0309" fill="black"/>
</g>
<defs>
<clipPath id="clip0_80_306">
<rect width="64" height="64.4267" fill="white" transform="translate(0 0.839966)"/>
</clipPath>
</defs>
</svg>
