<svg width="65" height="66" viewBox="0 0 65 66" fill="none" xmlns="http://www.w3.org/2000/svg">
<g clip-path="url(#clip0_80_350)">
<path d="M49.9 0.833374H15.9C7.61575 0.833374 0.900024 7.59387 0.900024 15.9334V50.16C0.900024 58.4995 7.61575 65.26 15.9 65.26H49.9C58.1843 65.26 64.9 58.4995 64.9 50.16V15.9334C64.9 7.59387 58.1843 0.833374 49.9 0.833374Z" fill="#242938"/>
<path fill-rule="evenodd" clip-rule="evenodd" d="M54.8615 20.5424C54.8775 20.6036 54.886 20.6668 54.886 20.7304V30.5955C54.886 30.7221 54.8533 30.8464 54.7913 30.9559C54.7294 31.0652 54.64 31.1561 54.532 31.2194L46.4205 35.9865V45.4353C46.4209 45.5612 46.3886 45.685 46.3268 45.7945C46.265 45.9039 46.1759 45.9953 46.0683 46.0594L29.1363 56.0091C29.0975 56.0315 29.0553 56.0458 29.013 56.0612C28.997 56.0667 28.9823 56.0765 28.9655 56.081C28.8472 56.1127 28.7226 56.1127 28.6043 56.081C28.585 56.0755 28.5673 56.0647 28.5488 56.0576C28.51 56.0433 28.4695 56.0307 28.4325 56.0091L11.504 46.0594C11.3962 45.996 11.3069 45.9051 11.245 45.7959C11.1828 45.6861 11.15 45.5618 11.15 45.4353V15.84C11.15 15.7751 11.1588 15.7122 11.1748 15.6513C11.1798 15.6304 11.1923 15.6115 11.1993 15.5909C11.2125 15.5531 11.2248 15.5146 11.2443 15.4794C11.2575 15.456 11.2768 15.4371 11.2928 15.4157C11.3128 15.3868 11.3315 15.3571 11.3553 15.3319C11.3753 15.3113 11.402 15.2959 11.4248 15.2781C11.4503 15.2564 11.4733 15.233 11.5023 15.2159H11.5033L19.9675 10.2412C20.0745 10.1784 20.1961 10.1453 20.3199 10.1453C20.4437 10.1453 20.5653 10.1784 20.6723 10.2412L29.137 15.2159H29.1388C29.1668 15.234 29.1908 15.2564 29.2163 15.2771C29.239 15.2952 29.2645 15.3113 29.2848 15.3312C29.3095 15.3571 29.3273 15.3868 29.3483 15.4157C29.3633 15.4371 29.3835 15.456 29.3958 15.4794C29.416 15.5154 29.4275 15.5531 29.4418 15.5909C29.4488 15.6115 29.461 15.6304 29.4663 15.652C29.4825 15.7135 29.4908 15.7766 29.491 15.84V34.325L36.5445 30.1793V20.7292C36.5445 20.6663 36.5533 20.6026 36.5693 20.5424C36.5755 20.5208 36.5868 20.5019 36.594 20.4813C36.608 20.4435 36.6203 20.4048 36.6398 20.3698C36.653 20.3464 36.6723 20.3275 36.6873 20.3059C36.7085 20.2772 36.726 20.2475 36.7508 20.2223C36.771 20.2017 36.7965 20.1863 36.8195 20.1682C36.8458 20.1468 36.8688 20.1234 36.897 20.1063H36.898L45.3635 15.1314C45.4704 15.0684 45.592 15.0352 45.7158 15.0352C45.8396 15.0352 45.9612 15.0684 46.068 15.1314L54.5328 20.1063C54.5628 20.1244 54.5855 20.1466 54.612 20.1675C54.634 20.1853 54.6595 20.2017 54.6798 20.2213C54.7045 20.2475 54.722 20.2772 54.7433 20.3059C54.759 20.3275 54.7785 20.3461 54.7908 20.3698C54.811 20.405 54.8225 20.4435 54.8365 20.4813C54.8445 20.5019 54.8563 20.5208 54.8615 20.5424ZM53.475 30.1793V21.9757L50.5128 23.7162L46.4205 26.1214V34.325L53.4758 30.1793H53.475ZM45.0103 45.019V36.8102L40.985 39.157L29.4903 45.8536V54.1397L45.0103 45.019ZM12.561 17.0853V45.019L28.0793 54.1389V45.8543L19.9723 41.1708L19.9698 41.169L19.966 41.1673C19.9388 41.1512 19.916 41.1278 19.8903 41.1079C19.8683 41.09 19.8428 41.0757 19.8235 41.0558L19.8218 41.0533C19.7988 41.0306 19.7828 41.0029 19.7635 40.9775C19.746 40.9534 19.7248 40.9327 19.7108 40.9076L19.7098 40.9048C19.6938 40.8779 19.684 40.8454 19.6728 40.8149C19.6613 40.788 19.6463 40.7628 19.6393 40.7339V40.7329C19.6305 40.6989 19.6288 40.6629 19.625 40.6277C19.6215 40.6008 19.6145 40.5738 19.6145 40.5469V21.2312L15.5233 18.8251L12.561 17.086V17.0853ZM20.321 11.6958L13.2685 15.8403L20.3193 19.9842L27.371 15.8393L20.3193 11.6961L20.321 11.6958ZM23.9888 37.5581L28.0803 35.154V17.0853L25.1178 18.8261L21.0258 21.231V39.2999L23.9888 37.5581ZM45.716 16.5862L38.664 20.7304L45.716 24.8744L52.7668 20.7294L45.716 16.5862ZM45.0103 26.1214L40.918 23.7162L37.956 21.9757V30.1793L42.0473 32.5834L45.0103 34.325V26.1214ZM28.784 44.6083L39.1273 38.5804L44.2978 35.5684L37.2513 31.427L29.138 36.1951L21.7435 40.5406L28.784 44.6083Z" fill="#FF2D20"/>
</g>
<defs>
<clipPath id="clip0_80_350">
<rect width="64" height="64.4267" fill="white" transform="translate(0.900024 0.833374)"/>
</clipPath>
</defs>
</svg>
