<svg width="94" height="66" viewBox="0 0 94 66" fill="none" xmlns="http://www.w3.org/2000/svg">
<g clip-path="url(#clip0_80_344)">
<path d="M27.9352 43.3471L30.7886 52.6672C31.4297 54.7833 31.6971 56.2605 31.59 57.1025C33.1506 52.895 34.241 48.3098 34.8614 43.3471H38.2924C36.8171 51.4264 34.8713 57.2976 32.4559 60.9601C30.5741 63.7825 28.5125 65.1936 26.2676 65.1936C25.669 65.1936 24.9311 65.0116 24.0554 64.6502V62.7026C24.4833 62.7657 24.9852 62.7995 25.5625 62.7995C26.6098 62.7995 27.4539 62.5073 28.0961 61.9241C28.865 61.2136 29.2499 60.415 29.2499 59.5298C29.2499 58.9254 28.9497 57.6851 28.3521 55.8088L24.3764 43.3471H27.9352ZM6.09693 37.6187L11.3233 53.671H11.3556L16.614 37.6187H20.9103C21.851 45.5795 22.4067 52.8634 22.5772 59.4658H18.9551C18.8276 53.2939 18.4746 47.4903 17.8973 42.0539H17.8658L12.35 59.4658H9.59162L4.10926 42.0539H4.07698C3.67024 47.2749 3.41424 53.0785 3.30752 59.4658H0.00445557C0.217911 51.6976 0.7521 44.4159 1.60702 37.6187H6.09693Z" fill="#00758F"/>
<path d="M64.6459 37.2945C70.2678 37.2945 73.0789 40.9101 73.0789 48.1379C73.0789 52.0656 72.2335 55.0323 70.5444 57.0366C70.24 57.4028 69.9035 57.7192 69.5492 58.0124L73.5276 59.9926L73.5238 59.9924L72.1112 62.448L66.9301 59.4048C66.0714 59.6609 65.1264 59.7888 64.0967 59.7888C61.3363 59.7888 59.2743 58.979 57.9111 57.3613C56.4147 55.5717 55.6669 52.7545 55.6669 48.9144C55.6669 45.0089 56.5108 42.0534 58.2005 40.0466C59.7394 38.2109 61.8882 37.2945 64.6459 37.2945ZM47.4301 37.3262C49.4394 37.3262 51.2664 37.8675 52.9121 38.9461L52.0763 40.8212C50.6681 40.2186 49.2797 39.9161 47.9106 39.9161C46.7996 39.9161 45.9436 40.1852 45.3469 40.7268C44.7469 41.2637 44.3757 41.9544 44.3757 42.7966C44.3757 44.0907 45.2915 45.2129 46.9825 46.161C47.5365 46.4658 48.0885 46.7742 48.6386 47.0861L48.7648 47.1575L48.828 47.1933L48.9544 47.2648L49.0175 47.3006L49.1436 47.3722C50.4236 48.0986 51.6281 48.792 51.6281 48.792C53.3188 50.0002 54.1617 51.2884 54.1617 53.41C54.1617 55.2629 53.4872 56.7838 52.1426 57.974C50.7972 59.1588 48.9896 59.7528 46.7259 59.7528C44.6088 59.7528 42.5569 59.069 40.5695 57.7129L41.4992 55.8363C43.2096 56.6993 44.7573 57.1303 46.1472 57.1303C47.4507 57.1303 48.471 56.8374 49.2091 56.2588C49.9457 55.676 50.3871 54.8632 50.3871 53.8326C50.3871 52.5354 49.4908 51.4265 47.8464 50.4962C47.3317 50.21 46.8185 49.9209 46.3069 49.6292L46.1809 49.5573C45.9495 49.4257 45.7164 49.2924 45.4881 49.1619L45.3643 49.091C44.254 48.4553 43.294 47.8998 43.294 47.8998C41.6501 46.6893 40.8258 45.3907 40.8258 43.2507C40.8258 41.4809 41.4405 40.0504 42.6681 38.9622C43.8986 37.8716 45.4861 37.3262 47.4301 37.3262ZM79.6859 37.6187V56.7783H86.5147V59.4658H76.2226V37.6187H79.6859ZM90.3092 56.7866V57.2407H89.5584V59.4634H88.9845V57.2407H88.2045V56.7866H90.3094H90.3092ZM91.6956 56.7866L92.4164 58.6112L93.0786 56.7866H93.8923V59.4634H93.3513V57.4263L92.5976 59.4634H92.2076L91.4526 57.4263H91.4236V59.4634H90.9118V56.7866H91.6957H91.6956ZM64.2924 39.9812C60.9794 39.9812 59.322 42.7337 59.322 48.2348C59.322 51.386 59.7612 53.6711 60.638 55.0953C61.45 56.4133 62.7217 57.0711 64.4534 57.0711C67.7663 57.0711 69.4236 54.2972 69.4236 48.7521C69.4236 45.645 68.9844 43.3796 68.1087 41.9546C67.2958 40.6395 66.0246 39.9812 64.2926 39.9812H64.2924Z" fill="#F29111"/>
<path d="M55.6089 2.18709C56.7079 -0.531388 60.5507 1.52731 62.0419 2.47691C62.4074 2.7145 62.8266 3.21644 63.2456 3.40196C63.8994 3.42781 64.5526 3.47931 65.2075 3.50682C66.4357 3.79738 67.5863 4.03478 68.5542 4.5897C73.0521 7.2563 75.9802 9.97367 78.675 14.4621C79.2508 15.4128 79.5385 16.4416 80.0089 17.4704C80.6617 19.0039 81.3952 20.6137 82.153 22.0637C82.4922 22.7512 82.7546 23.5156 83.2257 24.0962C83.4097 24.3617 83.9321 24.4399 84.2444 24.5985C85.1078 25.0484 86.1538 25.3899 86.9658 25.9179C88.4822 26.8697 89.9483 28.0039 91.2811 29.1651C91.7779 29.6133 92.1164 30.2478 92.5897 30.7218V30.9611C92.1696 31.0908 91.7509 31.2238 91.3319 31.3303C90.4167 31.5669 89.6059 31.5134 88.718 31.7503C88.1693 31.9105 87.4881 32.1219 86.9126 32.1756L86.9658 32.2295C87.3043 33.2033 89.1359 33.9952 89.9736 34.5776C90.991 35.3168 91.9338 36.2132 92.6926 37.2428C92.9547 37.5055 93.2167 37.7445 93.4775 38.0065C93.6598 38.2719 93.7111 38.6153 93.8956 38.852V38.9321C93.6913 38.8595 93.5444 38.7211 93.4052 38.5763L93.3222 38.489C93.2391 38.4023 93.1553 38.317 93.0597 38.2466C92.4825 37.8497 91.9092 37.3749 91.3319 37.0059C90.3395 36.372 89.1884 36.0041 88.1693 35.3677C87.5932 34.9984 87.0439 34.5776 86.4947 34.1549C85.9968 33.7844 85.4485 33.0729 85.1357 32.545C84.9514 32.2533 84.9261 31.9105 84.7155 31.6995C84.7531 31.3471 85.0739 31.2424 85.3975 31.1564L85.472 31.1366C85.5837 31.1075 85.693 31.0783 85.7883 31.0397C87.1479 30.4586 88.7688 30.2478 90.8619 30.3006C90.7831 29.7715 89.4752 29.1123 89.0576 28.7955C88.2196 28.1874 87.3322 27.5529 86.4432 26.9995C85.9721 26.7097 85.1602 26.4981 84.6383 26.2612C83.9321 25.9707 82.3626 25.6803 81.9712 25.1269C81.3065 24.2544 80.829 23.2138 80.3654 22.1627L80.2392 21.8758C80.1971 21.7802 80.1549 21.6846 80.1127 21.5891C79.5647 20.3233 78.884 19.0036 78.3348 17.7075C78.0476 17.0752 77.9158 16.5203 77.6013 15.9138C75.6928 12.1926 72.8682 9.07705 69.4436 6.88599C68.3182 6.17305 67.0633 5.51327 65.678 5.06487C64.893 4.82618 63.9507 4.95817 63.1143 4.77504H62.5638C62.094 4.64176 61.7018 4.14038 61.3352 3.87602C60.5256 3.32258 59.7146 2.95098 58.7464 2.55611C58.4071 2.39772 57.4383 2.02888 57.1002 2.31926C56.8908 2.37224 56.7846 2.45181 56.733 2.66336C56.5247 2.97903 56.7079 3.45457 56.8376 3.74569C57.2304 4.58933 57.7791 5.09072 58.2771 5.80366C58.7202 6.43592 59.2705 7.14886 59.5846 7.83633C60.2624 9.31408 60.578 10.9513 61.2061 12.4289C61.439 12.9846 61.8074 13.6168 62.1465 14.118C62.4338 14.5158 62.9563 14.8035 63.1143 15.3071C63.4294 15.835 62.6427 17.5771 62.4606 18.1304C61.7793 20.2952 61.9114 23.3045 62.6959 25.1809L62.7377 25.2799L62.7795 25.3801C63.0659 26.0674 63.3725 26.8075 64.1341 26.9997C64.1866 26.9472 64.1341 26.9747 64.2381 26.9472C64.4224 25.4948 64.4743 24.096 64.9716 22.9596C65.259 22.2491 65.8328 21.7468 66.2261 21.1667C66.4884 21.3248 66.4884 21.8012 66.6446 22.1165C66.985 22.9343 67.3504 23.8309 67.77 24.6511C68.6312 26.3403 69.6002 27.9779 70.6981 29.4554C71.0658 29.9832 71.5875 30.5642 72.058 31.0395C72.2676 31.2236 72.5024 31.3299 72.6599 31.5668H72.7112V31.6465C71.9267 31.3554 71.4294 30.5383 70.8037 30.0613C69.6257 29.1647 68.2149 27.8182 67.4029 26.5262C67.0633 25.7844 66.6961 25.0735 66.3301 24.3355V24.2821C66.1737 24.4929 66.2261 24.7023 66.1478 25.0213C65.8082 26.3403 66.0697 27.845 64.893 28.3194C63.559 28.8751 62.564 27.4228 62.1465 26.7628C60.8122 24.5723 60.4467 20.8769 61.3876 17.8939C61.5967 17.2336 61.6251 16.4416 61.99 15.9144C61.9112 15.4378 61.5463 15.3074 61.3352 15.0154C60.9692 14.5162 60.6558 13.9347 60.3691 13.3803C59.8186 12.2975 59.4269 11.0036 59.009 9.84223C58.8252 9.36798 58.7726 8.89189 58.5894 8.44293C58.2769 7.75769 57.7009 7.07022 57.2566 6.46398C56.6549 5.59265 54.9025 3.9039 55.6089 2.18709ZM64.186 7.35876C64.2559 7.42928 64.3402 7.49093 64.4275 7.55167L64.5328 7.6244C64.6731 7.72224 64.809 7.82525 64.8922 7.96555C65.0243 8.15126 65.0488 8.33457 65.2069 8.52065C65.2069 9.15513 65.0243 9.57695 64.6555 9.83983C64.6555 9.83983 64.6304 9.86752 64.6045 9.89336C64.3954 9.47044 64.2122 9.04973 64.0017 8.62717C63.7424 8.25833 63.3758 7.96573 63.1646 7.54428H63.1138V7.4913C63.4294 7.41285 63.7424 7.35876 64.186 7.35876Z" fill="#00758F"/>
</g>
<defs>
<clipPath id="clip0_80_344">
<rect width="93.9" height="64.4267" fill="white" transform="translate(0 0.833374)"/>
</clipPath>
</defs>
</svg>
