<svg width="64" height="66" viewBox="0 0 64 66" fill="none" xmlns="http://www.w3.org/2000/svg">
<path d="M0 33.0467C0 42.4052 14.327 49.9924 32 49.9924C49.673 49.9924 64 42.4052 64 33.0467C64 23.6882 49.6725 16.101 32 16.101C14.327 16.101 0 23.6882 0 33.0467Z" fill="url(#paint0_radial_80_326)"/>
<path d="M32 48.7342C48.9825 48.7342 62.75 41.7101 62.75 33.0468C62.75 24.3824 48.9825 17.3594 32 17.3594C15.0175 17.3594 1.25 24.3824 1.25 33.0468C1.25 41.7101 15.0175 48.7342 32 48.7342Z" fill="#777BB3"/>
<path d="M17.386 34.9916C18.7825 34.9916 19.8245 34.7324 20.484 34.2215C21.137 33.7152 21.5875 32.8389 21.824 31.6168C22.044 30.4742 21.96 29.677 21.574 29.2461C21.18 28.8062 20.3275 28.5832 19.0405 28.5832H16.8085L15.572 34.9916H17.386ZM10.0865 42.8854C10.0353 42.8854 9.98475 42.8739 9.93847 42.8518C9.89219 42.8297 9.85133 42.7976 9.81883 42.7578C9.78633 42.718 9.76299 42.6714 9.75049 42.6214C9.73799 42.5714 9.73663 42.5192 9.74652 42.4687L13.025 25.4872C13.0405 25.4078 13.0829 25.3363 13.1449 25.2848C13.2069 25.2333 13.2847 25.2051 13.365 25.2048H20.432C22.653 25.2048 24.306 25.8119 25.3455 27.0093C26.3895 28.2123 26.7125 29.8954 26.304 32.0099C26.1375 32.8711 25.8515 33.6709 25.454 34.3876C25.0402 35.1249 24.5123 35.7909 23.89 36.3607C23.1245 37.0815 22.258 37.605 21.3165 37.9125C20.3905 38.2165 19.2005 38.3705 17.7815 38.3705H14.9195L14.1025 42.6026C14.0871 42.6822 14.0446 42.754 13.9824 42.8056C13.9202 42.8572 13.8421 42.8854 13.7615 42.8854H10.0865Z" fill="black"/>
<path d="M17.095 28.9325H19.0405C20.594 28.9325 21.1335 29.2758 21.317 29.4806C21.6205 29.8199 21.6785 30.5361 21.4825 31.5503C21.263 32.6863 20.856 33.4922 20.2725 33.9442C19.6755 34.4072 18.7035 34.6418 17.386 34.6418H15.993L17.0955 28.933L17.095 28.9325ZM20.432 24.8555H13.3655C13.2044 24.8555 13.0482 24.9119 12.9238 25.015C12.7994 25.1181 12.7145 25.2615 12.6835 25.4207L9.40501 42.4027C9.38565 42.5038 9.38871 42.6081 9.41399 42.7079C9.43927 42.8077 9.48613 42.9007 9.55124 42.9802C9.61634 43.0596 9.69808 43.1237 9.79061 43.1677C9.88314 43.2117 9.98418 43.2346 10.0865 43.2347H13.7615C13.9226 43.2345 14.0787 43.178 14.203 43.0748C14.3273 42.9716 14.4122 42.8282 14.443 42.669L15.2055 38.7198H17.781C19.237 38.7198 20.463 38.5597 21.4245 38.2447C22.413 37.9215 23.3225 37.3734 24.1275 36.6154C24.7757 36.021 25.3257 35.3266 25.757 34.5582C26.1725 33.8098 26.4715 32.9743 26.6445 32.0763C27.0745 29.8501 26.725 28.0678 25.6065 26.7792C24.4985 25.5023 22.7575 24.855 20.432 24.855V24.8555ZM15.1505 35.3404H17.386C18.8675 35.3404 19.971 35.0601 20.696 34.4973C21.4215 33.9356 21.91 32.9974 22.165 31.6832C22.4075 30.4208 22.297 29.5304 21.8325 29.0115C21.367 28.4931 20.437 28.2334 19.0405 28.2334H16.5225L15.1505 35.3404ZM20.4325 25.5531C22.5585 25.5531 24.109 26.1153 25.084 27.2383C26.059 28.3617 26.352 29.9296 25.964 31.9424C25.803 32.7719 25.5325 33.5299 25.1515 34.2165C24.7695 34.904 24.2715 35.5322 23.656 36.1025C22.922 36.7935 22.1075 37.2863 21.21 37.5797C20.313 37.8737 19.17 38.0202 17.7815 38.0202H14.6335L13.762 42.5351H10.087L13.366 25.5531H20.4325Z" fill="white"/>
<path d="M34.7295 38.3704C34.6783 38.3705 34.6277 38.3591 34.5813 38.3371C34.5349 38.3152 34.494 38.2831 34.4614 38.2433C34.4288 38.2035 34.4053 38.157 34.3927 38.107C34.3801 38.057 34.3787 38.0048 34.3885 37.9541L35.8385 30.4404C35.977 29.7257 35.943 29.2133 35.7435 28.9958C35.621 28.8634 35.254 28.6415 34.1685 28.6415H31.5405L29.7175 38.088C29.7019 38.1676 29.6593 38.2392 29.597 38.2906C29.5347 38.342 29.4566 38.37 29.376 38.3699H25.731C25.6798 38.3699 25.6292 38.3586 25.5829 38.3366C25.5366 38.3147 25.4956 38.2827 25.463 38.243C25.4304 38.2033 25.4069 38.1568 25.3942 38.1069C25.3815 38.0569 25.3799 38.0048 25.3895 37.9541L28.6685 20.9722C28.6841 20.8926 28.7266 20.821 28.7888 20.7695C28.851 20.718 28.929 20.6898 29.0095 20.6898H32.6545C32.7057 20.6898 32.7563 20.7011 32.8026 20.7231C32.849 20.745 32.8899 20.777 32.9226 20.8167C32.9552 20.8564 32.9787 20.9029 32.9914 20.9529C33.0041 21.0028 33.0057 21.055 32.996 21.1056L32.205 25.2047H35.0315C37.185 25.2047 38.645 25.5862 39.4955 26.373C40.362 27.1748 40.633 28.4568 40.2995 30.1847L38.774 38.088C38.7584 38.1675 38.7159 38.239 38.6537 38.2904C38.5915 38.3418 38.5135 38.3699 38.433 38.3699H34.7295V38.3704Z" fill="black"/>
<path d="M32.655 20.3401H29.0095C28.8483 20.3401 28.6921 20.3966 28.5677 20.4998C28.4433 20.603 28.3584 20.7465 28.3275 20.9058L25.049 37.8873C25.0296 37.9885 25.0326 38.0928 25.0578 38.1926C25.0831 38.2925 25.1299 38.3856 25.195 38.4651C25.2601 38.5446 25.3419 38.6087 25.4345 38.6528C25.527 38.6968 25.6281 38.7197 25.7305 38.7198H29.376C29.5372 38.7198 29.6934 38.6633 29.8179 38.5601C29.9423 38.4569 30.0272 38.3134 30.058 38.1541L31.8265 28.9909H34.1675C35.2515 28.9909 35.4795 29.2239 35.488 29.2345C35.554 29.305 35.6405 29.6346 35.4975 30.374L34.0475 37.8873C34.0281 37.9885 34.0311 38.0928 34.0564 38.1928C34.0816 38.2927 34.1285 38.3858 34.1937 38.4653C34.2589 38.5448 34.3407 38.6089 34.4333 38.6529C34.526 38.6969 34.6271 38.7198 34.7295 38.7198H38.4335C38.5947 38.7197 38.7507 38.6631 38.875 38.5599C38.9994 38.4567 39.0842 38.3133 39.115 38.1541L40.6405 30.2517C40.998 28.3964 40.692 27.0052 39.7305 26.1158C38.8125 25.2672 37.2755 24.855 35.0315 24.855H32.6265L33.337 21.1731C33.3566 21.0718 33.3536 20.9675 33.3284 20.8675C33.3032 20.7675 33.2563 20.6744 33.1911 20.5948C33.1259 20.5151 33.0441 20.451 32.9514 20.407C32.8587 20.363 32.7575 20.3401 32.655 20.3401ZM32.655 21.0397L31.7835 25.5536H35.0315C37.075 25.5536 38.485 25.913 39.26 26.6307C40.0365 27.3485 40.2685 28.5107 39.959 30.1188L38.433 38.0207H34.7295L36.18 30.5069C36.345 29.6523 36.284 29.0694 35.9975 28.7583C35.711 28.4478 35.101 28.2923 34.1685 28.2923H31.254L29.376 38.0202H25.73L29.009 21.0382H32.655V21.0397Z" fill="white"/>
<path d="M46.068 34.9916C47.4645 34.9916 48.507 34.7324 49.167 34.2215C49.819 33.7152 50.27 32.8389 50.5065 31.6168C50.7265 30.4742 50.643 29.677 50.2565 29.2461C49.8625 28.8062 49.01 28.5832 47.723 28.5832H45.4915L44.254 34.9916H46.068ZM38.77 42.8854C38.7187 42.8855 38.668 42.8741 38.6216 42.8521C38.5752 42.8301 38.5343 42.798 38.5016 42.7582C38.469 42.7183 38.4456 42.6717 38.433 42.6216C38.4205 42.5716 38.4191 42.5193 38.429 42.4687L41.7075 25.4872C41.723 25.4077 41.7655 25.336 41.8277 25.2845C41.8899 25.233 41.968 25.2048 42.0485 25.2048H49.115C51.336 25.2048 52.989 25.8119 54.028 27.0093C55.0725 28.2123 55.395 29.8954 54.9865 32.0099C54.8304 32.8428 54.5436 33.6454 54.137 34.3876C53.7231 35.1248 53.1951 35.7908 52.573 36.3607C51.808 37.0815 50.9405 37.605 49.9995 37.9125C49.0735 38.2165 47.8835 38.3705 46.464 38.3705H43.6025L42.786 42.6026C42.7706 42.6823 42.728 42.7541 42.6657 42.8057C42.6034 42.8573 42.5252 42.8855 42.4445 42.8854H38.77Z" fill="black"/>
<path d="M45.7775 28.9325H47.723C49.2765 28.9325 49.816 29.2758 49.999 29.4806C50.304 29.8199 50.361 30.5361 50.1655 31.5503C49.9455 32.6863 49.5385 33.4922 48.955 33.9442C48.3575 34.4072 47.3855 34.6418 46.0685 34.6418H44.6755L45.7775 28.9325ZM49.1145 24.8555H42.048C41.8869 24.8556 41.7309 24.9121 41.6066 25.0152C41.4823 25.1183 41.3974 25.2616 41.3665 25.4207L38.0875 42.4027C38.0681 42.5039 38.0712 42.6081 38.0965 42.708C38.1218 42.8079 38.1687 42.9009 38.2339 42.9804C38.299 43.0598 38.3808 43.1239 38.4734 43.1678C38.566 43.2118 38.6671 43.2346 38.7695 43.2347H42.4445C42.6056 43.2345 42.7617 43.178 42.886 43.0748C43.0103 42.9716 43.0952 42.8282 43.126 42.669L43.8885 38.7198H46.4635C47.919 38.7198 49.1455 38.5597 50.1065 38.2447C51.0955 37.9215 52.005 37.3734 52.8105 36.6149C53.4585 36.0207 54.0083 35.3264 54.4395 34.5582C54.8555 33.8098 55.1535 32.9743 55.327 32.0763C55.757 29.8501 55.408 28.0678 54.289 26.7792C53.181 25.5023 51.4405 24.855 49.114 24.855L49.1145 24.8555ZM43.833 35.3404H46.068C47.55 35.3404 48.653 35.0601 49.379 34.4973C50.104 33.9356 50.593 32.9974 50.847 31.6832C51.0905 30.4208 50.98 29.5304 50.5145 29.0115C50.0495 28.4931 49.119 28.2334 47.723 28.2334H45.2055L43.833 35.3404ZM49.1145 25.5531C51.24 25.5531 52.7915 26.1153 53.766 27.2383C54.741 28.3617 55.0345 29.9296 54.6455 31.9424C54.4855 32.7719 54.2145 33.5299 53.8335 34.2165C53.452 34.904 52.9535 35.5322 52.3375 36.1025C51.604 36.7935 50.789 37.2863 49.8915 37.5797C48.995 37.8737 47.8525 38.0202 46.4635 38.0202H43.316L42.4435 42.5351H38.7685L42.0475 25.5531H49.1145Z" fill="white"/>
<defs>
<radialGradient id="paint0_radial_80_326" cx="0" cy="0" r="1" gradientUnits="userSpaceOnUse" gradientTransform="translate(19.213 22.0584) scale(42.0207 42.3008)">
<stop stop-color="#AEB2D5"/>
<stop offset="0.3" stop-color="#AEB2D5"/>
<stop offset="0.75" stop-color="#484C89"/>
<stop offset="1" stop-color="#484C89"/>
</radialGradient>
</defs>
</svg>
