<svg width="64" height="66" viewBox="0 0 64 66" fill="none" xmlns="http://www.w3.org/2000/svg">
<path d="M32 38.0343C34.7614 38.0343 37 35.7808 37 33.001C37 30.2212 34.7614 27.9677 32 27.9677C29.2386 27.9677 27 30.2212 27 33.001C27 35.7808 29.2386 38.0343 32 38.0343Z" fill="#00D8FF"/>
<path d="M32 44.5414C25.9903 44.6878 19.9956 43.8723 14.24 42.1254C11.5812 41.277 9.10147 39.9404 6.926 38.1833C6.09586 37.5831 5.40454 36.8091 4.89948 35.9146C4.39443 35.0201 4.08758 34.0261 4 33.001C4 29.673 7.632 26.4114 13.716 24.2772C19.6255 22.3862 25.7998 21.4697 32 21.5633C38.1174 21.4772 44.2091 22.3772 50.044 24.2289C52.6046 25.0507 55.0003 26.3226 57.12 27.9858C57.9359 28.5581 58.6169 29.304 59.1146 30.1707C59.6123 31.0374 59.9146 32.0036 60 33.001C60 36.4599 55.94 39.9651 49.4 42.1436C43.7559 43.8335 37.8877 44.6422 32 44.5414ZM32 23.9712C26.0682 23.8914 20.1617 24.7627 14.502 26.5523C8.902 28.5193 6.392 31.2091 6.392 32.995C6.392 34.8633 9.09 37.8008 15.014 39.8403C20.5201 41.503 26.2532 42.277 32 42.1335C37.6328 42.2349 43.2478 41.4676 48.65 39.8584C54.8 37.8068 57.6 34.8654 57.6 33.001C57.4991 32.3612 57.2675 31.7495 56.9198 31.2044C56.5721 30.6593 56.1159 30.1927 55.58 29.834C53.6835 28.3586 51.5434 27.2313 49.258 26.504C43.6761 24.7398 37.85 23.8848 32 23.9712Z" fill="#00D8FF"/>
<path d="M20.64 58.1052C19.707 58.1267 18.785 57.8989 17.968 57.4448C15.104 55.7818 14.112 50.986 15.314 44.6138C16.6393 38.5156 18.9356 32.6733 22.114 27.3133C25.0955 21.9358 28.9124 17.0733 33.42 12.9099C35.4063 11.0872 37.6978 9.63325 40.188 8.61543C41.0887 8.19049 42.0713 7.97021 43.066 7.97021C44.0607 7.97021 45.0433 8.19049 45.944 8.61543C48.922 10.3429 49.908 15.6339 48.518 22.4249C47.1518 28.1922 44.9151 33.7145 41.886 38.7993C39.0095 44.1132 35.3128 48.9335 30.934 53.0799C28.8756 54.974 26.4867 56.4682 23.888 57.4871C22.8477 57.8758 21.7495 58.0848 20.64 58.1052ZM24.186 28.5092C21.1542 33.6418 18.9533 39.2276 17.666 45.0568C16.56 50.9256 17.622 54.455 19.166 55.3529C20.766 56.2851 24.65 55.4013 29.366 51.2538C33.5461 47.2814 37.0745 42.6673 39.82 37.5833C42.7219 32.7221 44.8674 27.4424 46.182 21.9276C47.49 15.5353 46.36 11.6213 44.756 10.6912C44.1548 10.4593 43.5124 10.3555 42.8693 10.3863C42.2263 10.4172 41.5966 10.582 41.02 10.8704C38.8034 11.7912 36.7655 13.0984 35 14.7319C30.6934 18.7199 27.0474 23.375 24.2 28.5213L24.186 28.5092Z" fill="#00D8FF"/>
<path d="M43.354 58.1314C40.644 58.1314 37.202 56.4804 33.618 53.3779C29.0314 49.1766 25.15 44.2563 22.124 38.8074C18.9855 33.5211 16.7073 27.7634 15.376 21.7525C14.7986 19.1079 14.6916 16.3813 15.06 13.6991C15.1452 12.7042 15.4461 11.7401 15.9417 10.875C16.4372 10.0098 17.1153 9.26463 17.928 8.69197C20.902 6.95849 25.948 8.74029 31.098 13.3428C35.3792 17.4141 39.0148 22.1223 41.878 27.3032C45.0146 32.4661 47.3166 38.0978 48.698 43.9877C49.3002 46.7293 49.3931 49.5594 48.972 52.335C48.8718 53.3586 48.5529 54.3483 48.0371 55.2362C47.5214 56.1241 46.821 56.8892 45.984 57.4791C45.1803 57.9275 44.2726 58.1526 43.354 58.1314ZM24.194 37.5954C27.0969 42.8027 30.8046 47.5118 35.178 51.5458C39.676 55.4416 43.244 56.2791 44.778 55.3711C46.378 54.4349 47.558 50.6136 46.342 44.4306C45.0098 38.8073 42.8018 33.4316 39.8 28.5032C37.0677 23.5446 33.5975 19.0362 29.51 15.1346C24.662 10.8019 20.73 9.83353 19.128 10.7677C18.6287 11.1762 18.2189 11.6844 17.9246 12.2604C17.6303 12.8363 17.4578 13.4674 17.418 14.1139C17.1 16.5059 17.2036 18.9356 17.724 21.2914C19.0046 27.0398 21.1895 32.5452 24.196 37.5994L24.194 37.5954Z" fill="#00D8FF"/>
</svg>
