<svg width="64" height="66" viewBox="0 0 64 66" fill="none" xmlns="http://www.w3.org/2000/svg">
<g clip-path="url(#clip0_80_337)">
<path d="M49 0.833374H15C6.71573 0.833374 0 7.59387 0 15.9334V50.16C0 58.4995 6.71573 65.26 15 65.26H49C57.2843 65.26 64 58.4995 64 50.16V15.9334C64 7.59387 57.2843 0.833374 49 0.833374Z" fill="#0073AA"/>
<path d="M10.5535 33.0451C10.5535 41.5905 15.4867 48.9754 22.6402 52.475L12.4102 24.2592C11.1839 27.0236 10.5512 30.0176 10.5535 33.0451ZM46.477 31.9557C46.477 29.2877 45.525 27.44 44.7085 26.0017C43.6212 24.2235 42.6022 22.7175 42.6022 20.9392C42.6022 18.9546 44.0975 17.1073 46.2035 17.1073C46.2987 17.1073 46.3887 17.1192 46.4815 17.1244C42.666 13.6056 37.5827 11.4572 31.9992 11.4572C24.5072 11.4572 17.9155 15.3268 14.081 21.1881C14.584 21.2032 15.0582 21.214 15.461 21.214C17.7042 21.214 21.1765 20.9397 21.1765 20.9397C22.3325 20.8712 22.469 22.5806 21.314 22.7182C21.314 22.7182 20.1522 22.8559 18.8595 22.9241L26.669 46.3085L31.3622 32.1389L28.021 22.9233C26.8662 22.8551 25.7722 22.7175 25.7722 22.7175C24.6165 22.6493 24.752 20.8705 25.9077 20.9392C25.9077 20.9392 29.4492 21.213 31.5565 21.213C33.7995 21.213 37.272 20.9392 37.272 20.9392C38.429 20.8705 38.5647 22.5798 37.4095 22.7175C37.4095 22.7175 36.2452 22.8551 34.955 22.9233L42.7052 46.1305L44.8442 38.9349C45.7715 35.9486 46.477 33.8039 46.477 31.9557Z" fill="white"/>
<path d="M32.3757 34.9337L25.9412 53.7559C27.9085 54.3392 29.9487 54.6354 31.9995 54.6354C34.425 54.6363 36.8331 54.2225 39.121 53.4116C39.0615 53.3172 39.0104 53.2176 38.9685 53.1141L32.3757 34.9337ZM50.8172 22.6876C50.9148 23.4234 50.963 24.165 50.9617 24.9073C50.9617 27.0981 50.5552 29.5609 49.331 32.6403L42.7802 51.7063C49.156 47.9635 53.4445 41.0102 53.4445 33.0457C53.4447 29.2921 52.4925 25.7625 50.8172 22.6876Z" fill="white"/>
<path d="M31.9995 7.88C18.215 7.88 7 19.169 7 33.0452C7 46.9231 18.215 58.2116 31.9995 58.2116C45.7832 58.2116 57 46.9231 57 33.0452C56.9995 19.169 45.7832 7.88 31.9995 7.88ZM31.9995 57.0582C18.847 57.0582 8.14625 46.2859 8.14625 33.0452C8.14625 19.8052 18.8468 9.0339 31.9995 9.0339C45.1512 9.0339 55.8512 19.8052 55.8512 33.0452C55.8512 46.2859 45.1512 57.0582 31.9995 57.0582Z" fill="white"/>
</g>
<defs>
<clipPath id="clip0_80_337">
<rect width="64" height="64.4267" fill="white" transform="translate(0 0.833374)"/>
</clipPath>
</defs>
</svg>
